<svg width="17" height="17" viewBox="0 0 17 17" fill="none" xmlns="http://www.w3.org/2000/svg">
<path fill-rule="evenodd" clip-rule="evenodd" d="M2.00325 0.542038C2.18915 0.356414 2.41238 0.212417 2.65815 0.119591C2.90391 0.0267656 3.1666 -0.0127698 3.4288 0.00360517C3.691 0.0199801 3.94673 0.0918915 4.17903 0.214574C4.41134 0.337256 4.61492 0.507908 4.77628 0.71522L6.68341 3.16527C7.03296 3.61469 7.15621 4.20011 7.01809 4.75259L6.43692 7.07939C6.40708 7.19992 6.40881 7.3261 6.44193 7.44576C6.47506 7.56542 6.53847 7.67453 6.62604 7.76256L9.23651 10.373C9.32464 10.4608 9.43393 10.5243 9.5538 10.5574C9.67367 10.5906 9.80006 10.5922 9.92074 10.5622L12.2465 9.98098C12.5192 9.91321 12.8036 9.90811 13.0786 9.96608C13.3535 10.024 13.6117 10.1436 13.8338 10.3157L16.2838 12.2217C17.1646 12.907 17.2454 14.2085 16.457 14.9958L15.3584 16.0944C14.5722 16.8806 13.3971 17.2259 12.3017 16.8403C9.49753 15.8549 6.95172 14.2497 4.85384 12.1442C2.74843 10.0466 1.14324 7.50116 0.157745 4.69734C-0.226867 3.603 0.118434 2.42685 0.904659 1.64063L2.00325 0.542038Z" fill="#0A6563"/>
</svg>
