<svg width="18" height="18" viewBox="0 0 18 18" fill="none" xmlns="http://www.w3.org/2000/svg">
<path d="M15.75 1.125C16.0484 1.125 16.3345 1.24353 16.5455 1.4545C16.7565 1.66548 16.875 1.95163 16.875 2.25V11.25C16.875 11.5484 16.7565 11.8345 16.5455 12.0455C16.3345 12.2565 16.0484 12.375 15.75 12.375H12.9375C12.5882 12.375 12.2437 12.4563 11.9313 12.6125C11.6188 12.7688 11.3471 12.9956 11.1375 13.275L9 16.1246L6.8625 13.275C6.65292 12.9956 6.38116 12.7688 6.06873 12.6125C5.75631 12.4563 5.4118 12.375 5.0625 12.375H2.25C1.95163 12.375 1.66548 12.2565 1.4545 12.0455C1.24353 11.8345 1.125 11.5484 1.125 11.25V2.25C1.125 1.95163 1.24353 1.66548 1.4545 1.4545C1.66548 1.24353 1.95163 1.125 2.25 1.125H15.75ZM2.25 0C1.65326 0 1.08097 0.237053 0.65901 0.65901C0.237053 1.08097 0 1.65326 0 2.25L0 11.25C0 11.8467 0.237053 12.419 0.65901 12.841C1.08097 13.2629 1.65326 13.5 2.25 13.5H5.0625C5.23715 13.5 5.4094 13.5407 5.56562 13.6188C5.72183 13.6969 5.85771 13.8103 5.9625 13.95L8.1 16.7996C8.20479 16.9393 8.34067 17.0528 8.49688 17.1309C8.6531 17.209 8.82535 17.2496 9 17.2496C9.17465 17.2496 9.3469 17.209 9.50311 17.1309C9.65933 17.0528 9.79521 16.9393 9.9 16.7996L12.0375 13.95C12.1423 13.8103 12.2782 13.6969 12.4344 13.6188C12.5906 13.5407 12.7628 13.5 12.9375 13.5H15.75C16.3467 13.5 16.919 13.2629 17.341 12.841C17.7629 12.419 18 11.8467 18 11.25V2.25C18 1.65326 17.7629 1.08097 17.341 0.65901C16.919 0.237053 16.3467 0 15.75 0L2.25 0Z" fill="#0A6563"/>
<path d="M3.375 3.93774C3.375 3.78856 3.43426 3.64549 3.53975 3.54C3.64524 3.43451 3.78832 3.37524 3.9375 3.37524H14.0625C14.2117 3.37524 14.3548 3.43451 14.4602 3.54C14.5657 3.64549 14.625 3.78856 14.625 3.93774C14.625 4.08693 14.5657 4.23 14.4602 4.33549C14.3548 4.44098 14.2117 4.50024 14.0625 4.50024H3.9375C3.78832 4.50024 3.64524 4.44098 3.53975 4.33549C3.43426 4.23 3.375 4.08693 3.375 3.93774ZM3.375 6.75024C3.375 6.60106 3.43426 6.45799 3.53975 6.3525C3.64524 6.24701 3.78832 6.18774 3.9375 6.18774H14.0625C14.2117 6.18774 14.3548 6.24701 14.4602 6.3525C14.5657 6.45799 14.625 6.60106 14.625 6.75024C14.625 6.89943 14.5657 7.0425 14.4602 7.14799C14.3548 7.25348 14.2117 7.31274 14.0625 7.31274H3.9375C3.78832 7.31274 3.64524 7.25348 3.53975 7.14799C3.43426 7.0425 3.375 6.89943 3.375 6.75024ZM3.375 9.56274C3.375 9.41356 3.43426 9.27049 3.53975 9.165C3.64524 9.05951 3.78832 9.00024 3.9375 9.00024H9.5625C9.71168 9.00024 9.85476 9.05951 9.96025 9.165C10.0657 9.27049 10.125 9.41356 10.125 9.56274C10.125 9.71193 10.0657 9.855 9.96025 9.96049C9.85476 10.066 9.71168 10.1252 9.5625 10.1252H3.9375C3.78832 10.1252 3.64524 10.066 3.53975 9.96049C3.43426 9.855 3.375 9.71193 3.375 9.56274Z" fill="#0A6563"/>
</svg>
