<svg width="19" height="19" viewBox="0 0 19 19" fill="none" xmlns="http://www.w3.org/2000/svg">
<path d="M16.1512 2.76218C15.2801 1.88305 14.2428 1.18607 13.0997 0.711852C11.9565 0.237637 10.7305 -0.00432757 9.49288 5.858e-05C4.30706 5.858e-05 0.08075 4.22518 0.076 9.41218C0.076 11.0735 0.510625 12.6897 1.33119 14.1206L0 19.0001L4.99225 17.6914C6.37332 18.443 7.92054 18.837 9.49288 18.8374H9.49763C14.6846 18.8374 18.9097 14.6122 18.9145 9.4205C18.9157 8.18317 18.672 6.95784 18.1976 5.8151C17.7231 4.67236 17.0284 3.6348 16.1512 2.76218ZM9.49288 17.2437C8.09043 17.2442 6.71377 16.8668 5.50763 16.1512L5.22262 15.9802L2.261 16.7569L3.05187 13.8677L2.86663 13.5696C2.08265 12.3231 1.66802 10.88 1.67081 9.40743C1.67081 5.10156 5.18225 1.58893 9.49763 1.58893C10.5257 1.58709 11.544 1.78876 12.4937 2.18232C13.4435 2.57588 14.3059 3.15354 15.0314 3.882C15.7594 4.60762 16.3365 5.47019 16.7294 6.41996C17.1224 7.36973 17.3234 8.3879 17.3209 9.41575C17.3161 13.7371 13.8047 17.2437 9.49288 17.2437ZM13.7857 11.3846C13.5518 11.2671 12.3963 10.6982 12.179 10.6175C11.9629 10.5403 11.8049 10.4999 11.6506 10.7351C11.4926 10.969 11.0414 11.5022 10.906 11.6554C10.7706 11.8133 10.6305 11.8311 10.3954 11.7147C10.1614 11.596 9.40263 11.349 8.50488 10.5451C7.80425 9.92162 7.33519 9.14975 7.19506 8.91581C7.05969 8.68068 7.182 8.55481 7.29956 8.43725C7.40287 8.33275 7.5335 8.16175 7.65106 8.02637C7.76981 7.891 7.809 7.79125 7.88619 7.6345C7.96337 7.47537 7.92656 7.34 7.86837 7.22243C7.809 7.10487 7.33994 5.94468 7.14162 5.47681C6.95162 5.01487 6.75806 5.079 6.61319 5.07306C6.47781 5.06475 6.31988 5.06475 6.16194 5.06475C6.04267 5.06771 5.9253 5.0953 5.8172 5.14577C5.7091 5.19625 5.6126 5.26852 5.53375 5.35806C5.31763 5.59318 4.71319 6.162 4.71319 7.32218C4.71319 8.48237 5.55631 9.59743 5.67506 9.75537C5.79144 9.91331 7.33044 12.2871 9.69237 13.3084C10.2505 13.5518 10.6899 13.6955 11.0331 13.8047C11.5971 13.9852 12.1066 13.9579 12.5127 13.8997C12.9639 13.8309 13.9032 13.3297 14.1016 12.7799C14.2963 12.2289 14.2963 11.7587 14.2369 11.6601C14.1788 11.5604 14.0208 11.5022 13.7857 11.3846Z" fill="white"/>
</svg>
