<svg width="17" height="17" viewBox="0 0 17 17" fill="none" xmlns="http://www.w3.org/2000/svg">
<path d="M3.88276 1.41127C3.82004 1.33059 3.74087 1.26417 3.6505 1.21644C3.56014 1.16871 3.46066 1.14075 3.35866 1.13441C3.25666 1.12808 3.15449 1.14353 3.05892 1.17972C2.96335 1.21591 2.87657 1.27203 2.80435 1.34433L1.70576 2.44399C1.19259 2.95822 1.00347 3.68601 1.22765 4.32456C2.15915 6.96703 3.67255 9.3664 5.65602 11.3453C7.63496 13.3288 10.0343 14.8422 12.6768 15.7737C13.3153 15.9979 14.0431 15.8088 14.5574 15.2956L15.656 14.197C15.7283 14.1248 15.7844 14.038 15.8206 13.9424C15.8568 13.8469 15.8722 13.7447 15.8659 13.6427C15.8595 13.5407 15.8316 13.4412 15.7839 13.3509C15.7361 13.2605 15.6697 13.1813 15.589 13.1186L13.1379 11.2125C13.0516 11.1458 12.9514 11.0995 12.8447 11.0771C12.7379 11.0546 12.6275 11.0566 12.5217 11.0829L10.1949 11.6641C9.88427 11.7412 9.55902 11.7368 9.2506 11.6514C8.94218 11.5659 8.66104 11.4023 8.43437 11.1764L5.82495 8.56593C5.59883 8.33937 5.43504 8.05827 5.34942 7.74985C5.2638 7.44142 5.25925 7.11612 5.33621 6.80542L5.91845 4.47861C5.94475 4.37278 5.94675 4.26236 5.92431 4.15563C5.90186 4.04891 5.85554 3.94865 5.78882 3.86238L3.88276 1.41127ZM2.00219 0.543234C2.18812 0.357249 2.41148 0.212945 2.65745 0.119906C2.90343 0.0268667 3.16638 -0.0127796 3.42885 0.00359968C3.69132 0.019979 3.94731 0.0920091 4.1798 0.214907C4.4123 0.337805 4.61599 0.508759 4.77735 0.716417L6.68342 3.16647C7.03297 3.61589 7.15622 4.20131 7.0181 4.75379L6.43693 7.0806C6.40709 7.20112 6.40882 7.32731 6.44194 7.44697C6.47507 7.56663 6.53848 7.67574 6.62605 7.76376L9.23653 10.3742C9.32466 10.462 9.43395 10.5255 9.55382 10.5586C9.67369 10.5918 9.80008 10.5934 9.92076 10.5634L12.2465 9.9822C12.5192 9.91442 12.8037 9.90933 13.0786 9.96729C13.3535 10.0253 13.6117 10.1448 13.8338 10.3169L16.2839 12.2229C17.1647 12.9082 17.2454 14.2098 16.4571 14.997L15.3585 16.0956C14.5722 16.8819 13.3972 17.2272 12.3018 16.8415C9.49755 15.8561 6.95174 14.2509 4.85385 12.1454C2.74844 10.0478 1.14324 7.50237 0.157746 4.69855C-0.226868 3.6042 0.118434 2.42805 0.90466 1.64183L2.00219 0.543234Z" fill="white"/>
</svg>
