<svg width="13" height="7" viewBox="0 0 13 7" fill="none" xmlns="http://www.w3.org/2000/svg">
<path fill-rule="evenodd" clip-rule="evenodd" d="M0.146856 0.146856C0.19329 0.100305 0.248452 0.0633711 0.309181 0.0381711C0.369911 0.0129711 0.435015 0 0.500766 0C0.566516 0 0.631621 0.0129711 0.69235 0.0381711C0.75308 0.0633711 0.808241 0.100305 0.854675 0.146856L6.49923 5.79241L12.1438 0.146856C12.1903 0.10038 12.2454 0.063513 12.3062 0.0383603C12.3669 0.0132077 12.432 0.000261717 12.4977 0.000261717C12.5634 0.000261717 12.6285 0.0132077 12.6892 0.0383603C12.75 0.063513 12.8051 0.10038 12.8516 0.146856C12.8981 0.193332 12.9349 0.248507 12.9601 0.309231C12.9853 0.369955 12.9982 0.435038 12.9982 0.500766C12.9982 0.566493 12.9853 0.631576 12.9601 0.6923C12.9349 0.753024 12.8981 0.808199 12.8516 0.854675L6.85314 6.85314C6.80671 6.89969 6.75155 6.93663 6.69082 6.96183C6.63009 6.98703 6.56498 7 6.49923 7C6.43348 7 6.36838 6.98703 6.30765 6.96183C6.24692 6.93663 6.19176 6.89969 6.14532 6.85314L0.146856 0.854675C0.100305 0.808241 0.0633715 0.75308 0.0381715 0.69235C0.0129715 0.631621 0 0.566516 0 0.500766C0 0.435015 0.0129715 0.36991 0.0381715 0.309181C0.0633715 0.248451 0.100305 0.19329 0.146856 0.146856Z" fill="#1F1F1F"/>
</svg>
